<?xml version="1.0" standalone="no"?>
<!DOCTYPE svg PUBLIC "-//W3C//DTD SVG 20010904//EN"
 "http://www.w3.org/TR/2001/REC-SVG-20010904/DTD/svg10.dtd">
<svg version="1.0" xmlns="http://www.w3.org/2000/svg"
 width="177.000000pt" height="76.000000pt" viewBox="0 0 177.000000 76.000000"
 preserveAspectRatio="xMidYMid meet">
<metadata>
Created by potrace 1.15, written by Peter Selinger 2001-2017
</metadata>
<g transform="translate(0.000000,76.000000) scale(0.100000,-0.100000)"
fill="#000000" stroke="none">
<path d="M162 729 c-119 -59 -186 -239 -153 -413 28 -151 104 -212 192 -153
51 33 79 97 79 178 0 66 1 68 29 74 48 10 116 60 134 98 24 50 22 117 -6 158
-49 75 -183 103 -275 58z m183 -99 c35 -33 33 -72 -6 -104 -49 -42 -56 -37
-38 27 8 28 7 42 -2 53 -31 38 -92 -2 -104 -68 -7 -35 -9 -37 -36 -31 -28 5
-29 4 -29 -31 0 -31 5 -40 31 -54 30 -17 31 -18 26 -79 -3 -36 -12 -75 -22
-90 l-18 -27 -18 22 c-24 31 -34 138 -20 224 22 134 74 193 164 185 32 -3 56
-12 72 -27z"/>
<path d="M915 698 c-15 -12 -41 -42 -56 -67 -27 -41 -29 -43 -29 -19 0 33 -17
80 -33 90 -7 4 -60 8 -119 8 -125 0 -184 -17 -194 -56 -11 -42 1 -55 36 -42
17 5 33 9 34 7 2 -2 -15 -79 -38 -172 l-41 -167 -37 -10 c-33 -9 -68 -41 -68
-62 0 -5 58 -8 129 -8 102 0 131 3 141 15 18 22 5 45 -30 51 -16 4 -30 7 -30
8 5 39 69 267 76 268 5 0 26 15 47 34 20 19 40 34 43 34 10 0 -5 -136 -28
-257 -17 -92 -19 -115 -8 -128 15 -18 64 -20 78 -3 5 7 21 60 36 117 25 101
107 291 126 291 27 0 23 -91 -11 -259 -10 -51 -19 -101 -19 -111 0 -23 26 -50
49 -50 37 0 51 25 71 125 28 138 59 230 90 267 55 65 64 3 25 -160 -33 -137
-33 -166 4 -203 38 -38 84 -39 137 -3 l38 26 16 -23 c52 -79 156 -109 255 -74
21 8 41 12 43 10 8 -8 -21 -66 -40 -79 -14 -10 -27 -11 -59 -2 -48 13 -73 1
-77 -38 -3 -22 2 -29 32 -41 140 -59 256 69 256 281 0 91 -17 114 -82 114 -54
0 -71 -11 -66 -41 2 -17 12 -27 36 -34 65 -19 28 -62 -73 -85 -55 -12 -102 -1
-131 31 -15 16 -18 35 -17 85 3 121 79 237 172 265 55 16 75 1 66 -53 -8 -43
6 -68 36 -68 28 0 49 39 49 93 0 91 -76 134 -182 103 -125 -36 -207 -134 -243
-291 -11 -46 -22 -68 -51 -94 -54 -50 -60 -32 -29 95 47 190 25 304 -59 304
-40 0 -91 -32 -114 -70 -20 -32 -32 -30 -32 4 0 62 -71 87 -125 44z"/>
</g>
</svg>
